<svg width="48" height="48" viewBox="0 0 48 48" fill="none" xmlns="http://www.w3.org/2000/svg">
<path d="M11 27.5C12.933 27.5 14.5 25.933 14.5 24C14.5 22.067 12.933 20.5 11 20.5C9.067 20.5 7.5 22.067 7.5 24C7.5 25.933 9.067 27.5 11 27.5Z" fill="#616161"/>
<path d="M24 27.5C25.933 27.5 27.5 25.933 27.5 24C27.5 22.067 25.933 20.5 24 20.5C22.067 20.5 20.5 22.067 20.5 24C20.5 25.933 22.067 27.5 24 27.5Z" fill="#616161"/>
<path d="M37 27.5C38.933 27.5 40.5 25.933 40.5 24C40.5 22.067 38.933 20.5 37 20.5C35.067 20.5 33.5 22.067 33.5 24C33.5 25.933 35.067 27.5 37 27.5Z" fill="#616161"/>
</svg>
