<svg width="760" height="195" viewBox="0 0 760 195" fill="none" xmlns="http://www.w3.org/2000/svg">
<rect x="0.5" y="0.5" width="189" height="64" fill="white"/>
<rect x="0.5" y="0.5" width="189" height="64" stroke="black"/>
<path d="M73.2788 17.4639V29.666H80.4565V31.8877H73.2788V47.2686H70.6128V17.4639H73.2788ZM101.204 41.2188C100.007 41.2188 98.9819 40.2275 99.0161 38.9971C98.9819 37.8008 100.007 36.8096 101.204 36.8096C102.4 36.8096 103.391 37.8008 103.391 38.9971C103.391 40.2275 102.4 41.2188 101.204 41.2188ZM101.204 27.4785C100.007 27.4785 98.9819 26.4873 99.0161 25.2568C98.9819 24.0605 100.007 23.0693 101.204 23.0693C102.4 23.0693 103.391 24.0605 103.391 25.2568C103.391 26.4873 102.4 27.4785 101.204 27.4785ZM123.215 35.6133C121.301 35.6133 119.729 34.041 119.729 32.0928C119.729 30.1787 121.301 28.6064 123.215 28.6064C125.164 28.6064 126.736 30.1787 126.736 32.0928C126.736 34.041 125.164 35.6133 123.215 35.6133Z" fill="black"/>
<rect x="190.5" y="0.5" width="189" height="64" fill="white"/>
<rect x="190.5" y="0.5" width="189" height="64" stroke="black"/>
<path d="M256.016 26.2139V28.4355H249.043V34.4854H256.016V36.7412H249.043V47.166H246.343V17.3955H249.043V26.2139H256.016ZM277.891 41.2188C276.694 41.2188 275.669 40.2275 275.703 38.9971C275.669 37.8008 276.694 36.8096 277.891 36.8096C279.087 36.8096 280.078 37.8008 280.078 38.9971C280.078 40.2275 279.087 41.2188 277.891 41.2188ZM277.891 27.4785C276.694 27.4785 275.669 26.4873 275.703 25.2568C275.669 24.0605 276.694 23.0693 277.891 23.0693C279.087 23.0693 280.078 24.0605 280.078 25.2568C280.078 26.4873 279.087 27.4785 277.891 27.4785ZM299.902 35.6133C297.988 35.6133 296.416 34.041 296.416 32.0928C296.416 30.1787 297.988 28.6064 299.902 28.6064C301.851 28.6064 303.423 30.1787 303.423 32.0928C303.423 34.041 301.851 35.6133 299.902 35.6133ZM326.528 35.6133C324.614 35.6133 323.042 34.041 323.042 32.0928C323.042 30.1787 324.614 28.6064 326.528 28.6064C328.477 28.6064 330.049 30.1787 330.049 32.0928C330.049 34.041 328.477 35.6133 326.528 35.6133Z" fill="black"/>
<rect x="380.5" y="0.5" width="189" height="64" fill="white"/>
<rect x="380.5" y="0.5" width="189" height="64" stroke="black"/>
<path d="M457.927 17.3955V47.2344H455.261V31.7168H448.015V29.4609H455.261V17.3955H457.927ZM481.887 41.2188C480.691 41.2188 479.666 40.2275 479.7 38.9971C479.666 37.8008 480.691 36.8096 481.887 36.8096C483.083 36.8096 484.075 37.8008 484.075 38.9971C484.075 40.2275 483.083 41.2188 481.887 41.2188ZM481.887 27.4785C480.691 27.4785 479.666 26.4873 479.7 25.2568C479.666 24.0605 480.691 23.0693 481.887 23.0693C483.083 23.0693 484.075 24.0605 484.075 25.2568C484.075 26.4873 483.083 27.4785 481.887 27.4785ZM511.863 30.7939V33.4941H494.841V30.7939H511.863Z" fill="black"/>
<rect x="570.5" y="0.5" width="189" height="64" fill="white"/>
<rect x="570.5" y="0.5" width="189" height="64" stroke="black"/>
<path d="M620.72 17.3955V47.2002H618.02V35.9551H610.74V33.665H618.02V28.0254H610.74V25.7695H618.02V17.3955H620.72ZM644.578 41.2188C643.381 41.2188 642.356 40.2275 642.39 38.9971C642.356 37.8008 643.381 36.8096 644.578 36.8096C645.774 36.8096 646.765 37.8008 646.765 38.9971C646.765 40.2275 645.774 41.2188 644.578 41.2188ZM644.578 27.4785C643.381 27.4785 642.356 26.4873 642.39 25.2568C642.356 24.0605 643.381 23.0693 644.578 23.0693C645.774 23.0693 646.765 24.0605 646.765 25.2568C646.765 26.4873 645.774 27.4785 644.578 27.4785ZM666.589 35.6133C664.675 35.6133 663.103 34.041 663.103 32.0928C663.103 30.1787 664.675 28.6064 666.589 28.6064C668.538 28.6064 670.11 30.1787 670.11 32.0928C670.11 34.041 668.538 35.6133 666.589 35.6133ZM693.215 35.6133C691.301 35.6133 689.729 34.041 689.729 32.0928C689.729 30.1787 691.301 28.6064 693.215 28.6064C695.164 28.6064 696.736 30.1787 696.736 32.0928C696.736 34.041 695.164 35.6133 693.215 35.6133ZM719.841 35.6133C717.927 35.6133 716.355 34.041 716.355 32.0928C716.355 30.1787 717.927 28.6064 719.841 28.6064C721.79 28.6064 723.362 30.1787 723.362 32.0928C723.362 34.041 721.79 35.6133 719.841 35.6133Z" fill="black"/>
<rect x="0.5" y="65.5" width="189" height="64" fill="white"/>
<rect x="0.5" y="65.5" width="189" height="64" stroke="black"/>
<path d="M73.9795 100.853V103.108H46.3965V100.853H58.8379V88.1719H61.4697V100.853H73.9795ZM88.5742 106.219C87.3779 106.219 86.3525 105.228 86.3867 103.997C86.3525 102.801 87.3779 101.81 88.5742 101.81C89.7705 101.81 90.7617 102.801 90.7617 103.997C90.7617 105.228 89.7705 106.219 88.5742 106.219ZM88.5742 92.4785C87.3779 92.4785 86.3525 91.4873 86.3867 90.2568C86.3525 89.0605 87.3779 88.0693 88.5742 88.0693C89.7705 88.0693 90.7617 89.0605 90.7617 90.2568C90.7617 91.4873 89.7705 92.4785 88.5742 92.4785ZM110.586 100.613C108.672 100.613 107.1 99.041 107.1 97.0928C107.1 95.1787 108.672 93.6064 110.586 93.6064C112.534 93.6064 114.106 95.1787 114.106 97.0928C114.106 99.041 112.534 100.613 110.586 100.613ZM145.176 95.7939V98.4941H128.154V95.7939H145.176Z" fill="black"/>
<rect x="190.5" y="65.5" width="189" height="64" fill="white"/>
<rect x="190.5" y="65.5" width="189" height="64" stroke="black"/>
<path d="M264.185 101.639V103.895H236.636V101.639H243.813V88.2402H246.479V101.639H254.443V88.2402H257.109V101.639H264.185ZM278.574 106.219C277.378 106.219 276.353 105.228 276.387 103.997C276.353 102.801 277.378 101.81 278.574 101.81C279.771 101.81 280.762 102.801 280.762 103.997C280.762 105.228 279.771 106.219 278.574 106.219ZM278.574 92.4785C277.378 92.4785 276.353 91.4873 276.387 90.2568C276.353 89.0605 277.378 88.0693 278.574 88.0693C279.771 88.0693 280.762 89.0605 280.762 90.2568C280.762 91.4873 279.771 92.4785 278.574 92.4785ZM308.55 95.7939V98.4941H291.528V95.7939H308.55ZM325.845 100.613C323.931 100.613 322.358 99.041 322.358 97.0928C322.358 95.1787 323.931 93.6064 325.845 93.6064C327.793 93.6064 329.365 95.1787 329.365 97.0928C329.365 99.041 327.793 100.613 325.845 100.613Z" fill="black"/>
<rect x="380.5" y="65.5" width="189" height="64" fill="white"/>
<rect x="380.5" y="65.5" width="189" height="64" stroke="black"/>
<path d="M426.875 92.2734V94.4609H414.434V107.552H411.733V94.4609H399.326V92.2734H426.875ZM441.265 106.219C440.068 106.219 439.043 105.228 439.077 103.997C439.043 102.801 440.068 101.81 441.265 101.81C442.461 101.81 443.452 102.801 443.452 103.997C443.452 105.228 442.461 106.219 441.265 106.219ZM441.265 92.4785C440.068 92.4785 439.043 91.4873 439.077 90.2568C439.043 89.0605 440.068 88.0693 441.265 88.0693C442.461 88.0693 443.452 89.0605 443.452 90.2568C443.452 91.4873 442.461 92.4785 441.265 92.4785ZM463.276 100.613C461.362 100.613 459.79 99.041 459.79 97.0928C459.79 95.1787 461.362 93.6064 463.276 93.6064C465.225 93.6064 466.797 95.1787 466.797 97.0928C466.797 99.041 465.225 100.613 463.276 100.613ZM489.902 100.613C487.988 100.613 486.416 99.041 486.416 97.0928C486.416 95.1787 487.988 93.6064 489.902 93.6064C491.851 93.6064 493.423 95.1787 493.423 97.0928C493.423 99.041 491.851 100.613 489.902 100.613ZM516.528 100.613C514.614 100.613 513.042 99.041 513.042 97.0928C513.042 95.1787 514.614 93.6064 516.528 93.6064C518.477 93.6064 520.049 95.1787 520.049 97.0928C520.049 99.041 518.477 100.613 516.528 100.613ZM543.154 100.613C541.24 100.613 539.668 99.041 539.668 97.0928C539.668 95.1787 541.24 93.6064 543.154 93.6064C545.103 93.6064 546.675 95.1787 546.675 97.0928C546.675 99.041 545.103 100.613 543.154 100.613Z" fill="black"/>
<rect x="570.5" y="65.5" width="189" height="64" fill="white"/>
<rect x="570.5" y="65.5" width="189" height="64" stroke="black"/>
<path d="M630.667 92.2051V94.4268H623.181V107.518H620.481V94.4268H613.132V107.518H610.432V94.4268H603.083V92.2051H630.667ZM645.261 106.219C644.065 106.219 643.04 105.228 643.074 103.997C643.04 102.801 644.065 101.81 645.261 101.81C646.458 101.81 647.449 102.801 647.449 103.997C647.449 105.228 646.458 106.219 645.261 106.219ZM645.261 92.4785C644.065 92.4785 643.04 91.4873 643.074 90.2568C643.04 89.0605 644.065 88.0693 645.261 88.0693C646.458 88.0693 647.449 89.0605 647.449 90.2568C647.449 91.4873 646.458 92.4785 645.261 92.4785ZM667.273 100.613C665.359 100.613 663.787 99.041 663.787 97.0928C663.787 95.1787 665.359 93.6064 667.273 93.6064C669.221 93.6064 670.793 95.1787 670.793 97.0928C670.793 99.041 669.221 100.613 667.273 100.613ZM701.863 95.7939V98.4941H684.841V95.7939H701.863ZM719.158 100.613C717.244 100.613 715.671 99.041 715.671 97.0928C715.671 95.1787 717.244 93.6064 719.158 93.6064C721.106 93.6064 722.678 95.1787 722.678 97.0928C722.678 99.041 721.106 100.613 719.158 100.613Z" fill="black"/>
<rect x="0.5" y="130.5" width="189" height="64" fill="white"/>
<rect x="0.5" y="130.5" width="189" height="64" stroke="black"/>
<path d="M60.6665 160.452V162.742H33.0835V160.452H60.6665ZM75.2612 171.219C74.0649 171.219 73.0396 170.228 73.0737 168.997C73.0396 167.801 74.0649 166.81 75.2612 166.81C76.4575 166.81 77.4487 167.801 77.4487 168.997C77.4487 170.228 76.4575 171.219 75.2612 171.219ZM75.2612 157.479C74.0649 157.479 73.0396 156.487 73.0737 155.257C73.0396 154.061 74.0649 153.069 75.2612 153.069C76.4575 153.069 77.4487 154.061 77.4487 155.257C77.4487 156.487 76.4575 157.479 75.2612 157.479ZM105.237 160.794V163.494H88.2153V160.794H105.237ZM122.532 165.613C120.618 165.613 119.045 164.041 119.045 162.093C119.045 160.179 120.618 158.606 122.532 158.606C124.48 158.606 126.052 160.179 126.052 162.093C126.052 164.041 124.48 165.613 122.532 165.613ZM149.158 165.613C147.244 165.613 145.671 164.041 145.671 162.093C145.671 160.179 147.244 158.606 149.158 158.606C151.106 158.606 152.678 160.179 152.678 162.093C152.678 164.041 151.106 165.613 149.158 165.613Z" fill="black"/>
<rect x="190.5" y="130.5" width="189" height="64" fill="white"/>
<rect x="190.5" y="130.5" width="189" height="64" stroke="black"/>
<path d="M238.43 147.396V177.234H235.73V147.396H238.43ZM265.261 171.219C264.065 171.219 263.04 170.228 263.074 168.997C263.04 167.801 264.065 166.81 265.261 166.81C266.458 166.81 267.449 167.801 267.449 168.997C267.449 170.228 266.458 171.219 265.261 171.219ZM265.261 157.479C264.065 157.479 263.04 156.487 263.074 155.257C263.04 154.061 264.065 153.069 265.261 153.069C266.458 153.069 267.449 154.061 267.449 155.257C267.449 156.487 266.458 157.479 265.261 157.479ZM287.273 165.613C285.359 165.613 283.787 164.041 283.787 162.093C283.787 160.179 285.359 158.606 287.273 158.606C289.221 158.606 290.793 160.179 290.793 162.093C290.793 164.041 289.221 165.613 287.273 165.613ZM313.899 165.613C311.985 165.613 310.413 164.041 310.413 162.093C310.413 160.179 311.985 158.606 313.899 158.606C315.847 158.606 317.419 160.179 317.419 162.093C317.419 164.041 315.847 165.613 313.899 165.613ZM348.489 160.794V163.494H331.467V160.794H348.489Z" fill="black"/>
<rect x="380.5" y="130.5" width="189" height="64" fill="white"/>
<rect x="380.5" y="130.5" width="189" height="64" stroke="black"/>
<path d="M420.449 147.361V177.166H417.92V161.58H412.52V176.072H409.99V147.874H412.52V159.358H417.92V147.361H420.449ZM443.315 171.219C442.119 171.219 441.094 170.228 441.128 168.997C441.094 167.801 442.119 166.81 443.315 166.81C444.512 166.81 445.503 167.801 445.503 168.997C445.503 170.228 444.512 171.219 443.315 171.219ZM443.315 157.479C442.119 157.479 441.094 156.487 441.128 155.257C441.094 154.061 442.119 153.069 443.315 153.069C444.512 153.069 445.503 154.061 445.503 155.257C445.503 156.487 444.512 157.479 443.315 157.479ZM473.291 160.794V163.494H456.27V160.794H473.291ZM498.55 160.794V163.494H481.528V160.794H498.55ZM515.845 165.613C513.931 165.613 512.358 164.041 512.358 162.093C512.358 160.179 513.931 158.606 515.845 158.606C517.793 158.606 519.365 160.179 519.365 162.093C519.365 164.041 517.793 165.613 515.845 165.613ZM550.435 160.794V163.494H533.413V160.794H550.435Z" fill="black"/>
<rect x="570.5" y="130.5" width="189" height="64" fill="white"/>
<rect x="570.5" y="130.5" width="189" height="64" stroke="black"/>
<path d="M611.577 147.396V177.269H608.945V147.396H611.577ZM605.493 147.874V176.175H602.93V161.58H597.29V159.358H602.93V147.874H605.493ZM633.315 171.219C632.119 171.219 631.094 170.228 631.128 168.997C631.094 167.801 632.119 166.81 633.315 166.81C634.512 166.81 635.503 167.801 635.503 168.997C635.503 170.228 634.512 171.219 633.315 171.219ZM633.315 157.479C632.119 157.479 631.094 156.487 631.128 155.257C631.094 154.061 632.119 153.069 633.315 153.069C634.512 153.069 635.503 154.061 635.503 155.257C635.503 156.487 634.512 157.479 633.315 157.479ZM663.291 160.794V163.494H646.27V160.794H663.291ZM680.586 165.613C678.672 165.613 677.1 164.041 677.1 162.093C677.1 160.179 678.672 158.606 680.586 158.606C682.534 158.606 684.106 160.179 684.106 162.093C684.106 164.041 682.534 165.613 680.586 165.613ZM715.176 160.794V163.494H698.154V160.794H715.176ZM740.435 160.794V163.494H723.413V160.794H740.435Z" fill="black"/>
</svg>
