<svg width="950" height="130" viewBox="0 0 950 130" fill="none" xmlns="http://www.w3.org/2000/svg">
<rect x="0.5" y="0.5" width="189" height="64" fill="white"/>
<rect x="0.5" y="0.5" width="189" height="64" stroke="black"/>
<path d="M25.7349 19.7539V44.5H22.6245V22.9668H22.4878L16.4722 26.9658V23.8555L22.6245 19.7539H25.7349ZM43.2349 41.2188C42.0386 41.2188 41.0132 40.2275 41.0474 38.9971C41.0132 37.8008 42.0386 36.8096 43.2349 36.8096C44.4312 36.8096 45.4224 37.8008 45.4224 38.9971C45.4224 40.2275 44.4312 41.2188 43.2349 41.2188ZM43.2349 27.4785C42.0386 27.4785 41.0132 26.4873 41.0474 25.2568C41.0132 24.0605 42.0386 23.0693 43.2349 23.0693C44.4312 23.0693 45.4224 24.0605 45.4224 25.2568C45.4224 26.4873 44.4312 27.4785 43.2349 27.4785ZM65.2466 35.6133C63.3325 35.6133 61.7603 34.041 61.7603 32.0928C61.7603 30.1787 63.3325 28.6064 65.2466 28.6064C67.1948 28.6064 68.7671 30.1787 68.7671 32.0928C68.7671 34.041 67.1948 35.6133 65.2466 35.6133ZM99.8364 30.7939V33.4941H82.8149V30.7939H99.8364ZM125.095 30.7939V33.4941H108.074V30.7939H125.095ZM150.354 30.7939V33.4941H133.333V30.7939H150.354ZM175.613 30.7939V33.4941H158.591V30.7939H175.613Z" fill="black"/>
<rect x="190.5" y="0.5" width="189" height="64" fill="white"/>
<rect x="190.5" y="0.5" width="189" height="64" stroke="black"/>
<path d="M203.704 44.5L203.669 42.2441L212.112 33.3574C215.051 30.2471 216.453 28.5723 216.453 26.2822C216.453 23.7529 214.299 22.0781 211.531 22.0781C208.591 22.0781 206.711 23.958 206.711 26.7266H203.806C203.772 22.3516 207.156 19.4121 211.633 19.4121C216.111 19.4121 219.324 22.4199 219.324 26.2822C219.324 29.0508 218.025 31.2041 213.65 35.7158L207.976 41.5605V41.7656H219.768V44.5H203.704ZM235.149 41.2188C233.953 41.2188 232.927 40.2275 232.961 38.9971C232.927 37.8008 233.953 36.8096 235.149 36.8096C236.345 36.8096 237.336 37.8008 237.336 38.9971C237.336 40.2275 236.345 41.2188 235.149 41.2188ZM235.149 27.4785C233.953 27.4785 232.927 26.4873 232.961 25.2568C232.927 24.0605 233.953 23.0693 235.149 23.0693C236.345 23.0693 237.336 24.0605 237.336 25.2568C237.336 26.4873 236.345 27.4785 235.149 27.4785ZM257.161 35.6133C255.247 35.6133 253.674 34.041 253.674 32.0928C253.674 30.1787 255.247 28.6064 257.161 28.6064C259.109 28.6064 260.681 30.1787 260.681 32.0928C260.681 34.041 259.109 35.6133 257.161 35.6133ZM283.787 35.6133C281.873 35.6133 280.3 34.041 280.3 32.0928C280.3 30.1787 281.873 28.6064 283.787 28.6064C285.735 28.6064 287.307 30.1787 287.307 32.0928C287.307 34.041 285.735 35.6133 283.787 35.6133ZM318.376 30.7939V33.4941H301.355V30.7939H318.376ZM343.635 30.7939V33.4941H326.614V30.7939H343.635ZM368.894 30.7939V33.4941H351.873V30.7939H368.894Z" fill="black"/>
<rect x="380.5" y="0.5" width="189" height="64" fill="white"/>
<rect x="380.5" y="0.5" width="189" height="64" stroke="black"/>
<path d="M401.035 44.8418C396.113 44.8418 392.593 42.21 392.422 38.2793H395.532C395.703 40.6377 398.062 42.1074 401.001 42.1074C404.248 42.1074 406.641 40.3301 406.641 37.7666C406.641 35.0664 404.487 33.1523 400.625 33.1523H398.608V30.4521H400.625C403.633 30.4521 405.718 28.7773 405.718 26.2139C405.718 23.7529 403.906 22.0781 401.104 22.0781C398.472 22.0781 396.045 23.5479 395.908 25.9746H392.935C393.105 22.0439 396.729 19.4121 401.138 19.4121C405.854 19.4121 408.726 22.4883 408.691 26.043C408.726 28.8457 407.085 30.9307 404.487 31.6484V31.8193C407.7 32.332 409.683 34.6221 409.648 37.7666C409.683 41.834 405.957 44.8418 401.035 44.8418ZM424.995 41.2188C423.799 41.2188 422.773 40.2275 422.808 38.9971C422.773 37.8008 423.799 36.8096 424.995 36.8096C426.191 36.8096 427.183 37.8008 427.183 38.9971C427.183 40.2275 426.191 41.2188 424.995 41.2188ZM424.995 27.4785C423.799 27.4785 422.773 26.4873 422.808 25.2568C422.773 24.0605 423.799 23.0693 424.995 23.0693C426.191 23.0693 427.183 24.0605 427.183 25.2568C427.183 26.4873 426.191 27.4785 424.995 27.4785ZM447.007 35.6133C445.093 35.6133 443.521 34.041 443.521 32.0928C443.521 30.1787 445.093 28.6064 447.007 28.6064C448.955 28.6064 450.527 30.1787 450.527 32.0928C450.527 34.041 448.955 35.6133 447.007 35.6133ZM473.633 35.6133C471.719 35.6133 470.146 34.041 470.146 32.0928C470.146 30.1787 471.719 28.6064 473.633 28.6064C475.581 28.6064 477.153 30.1787 477.153 32.0928C477.153 34.041 475.581 35.6133 473.633 35.6133ZM500.259 35.6133C498.345 35.6133 496.772 34.041 496.772 32.0928C496.772 30.1787 498.345 28.6064 500.259 28.6064C502.207 28.6064 503.779 30.1787 503.779 32.0928C503.779 34.041 502.207 35.6133 500.259 35.6133ZM534.849 30.7939V33.4941H517.827V30.7939H534.849ZM560.107 30.7939V33.4941H543.086V30.7939H560.107Z" fill="black"/>
<rect x="570.5" y="0.5" width="189" height="64" fill="white"/>
<rect x="570.5" y="0.5" width="189" height="64" stroke="black"/>
<path d="M581.072 39.4414V36.9121L592.214 19.7539H596.008V36.7412H599.46V39.4414H596.008V44.5H593.069V39.4414H581.072ZM584.387 36.7412H593.069V23.6504H592.761L584.387 36.5361V36.7412ZM614.431 41.2188C613.235 41.2188 612.209 40.2275 612.244 38.9971C612.209 37.8008 613.235 36.8096 614.431 36.8096C615.627 36.8096 616.619 37.8008 616.619 38.9971C616.619 40.2275 615.627 41.2188 614.431 41.2188ZM614.431 27.4785C613.235 27.4785 612.209 26.4873 612.244 25.2568C612.209 24.0605 613.235 23.0693 614.431 23.0693C615.627 23.0693 616.619 24.0605 616.619 25.2568C616.619 26.4873 615.627 27.4785 614.431 27.4785ZM636.443 35.6133C634.529 35.6133 632.957 34.041 632.957 32.0928C632.957 30.1787 634.529 28.6064 636.443 28.6064C638.391 28.6064 639.963 30.1787 639.963 32.0928C639.963 34.041 638.391 35.6133 636.443 35.6133ZM663.069 35.6133C661.155 35.6133 659.583 34.041 659.583 32.0928C659.583 30.1787 661.155 28.6064 663.069 28.6064C665.017 28.6064 666.589 30.1787 666.589 32.0928C666.589 34.041 665.017 35.6133 663.069 35.6133ZM689.695 35.6133C687.781 35.6133 686.208 34.041 686.208 32.0928C686.208 30.1787 687.781 28.6064 689.695 28.6064C691.643 28.6064 693.215 30.1787 693.215 32.0928C693.215 34.041 691.643 35.6133 689.695 35.6133ZM716.321 35.6133C714.407 35.6133 712.834 34.041 712.834 32.0928C712.834 30.1787 714.407 28.6064 716.321 28.6064C718.269 28.6064 719.841 30.1787 719.841 32.0928C719.841 34.041 718.269 35.6133 716.321 35.6133ZM750.911 30.7939V33.4941H733.889V30.7939H750.911Z" fill="black"/>
<rect x="760.5" y="0.5" width="189" height="64" fill="white"/>
<rect x="760.5" y="0.5" width="189" height="64" stroke="black"/>
<path d="M779.548 44.8418C775.071 44.8418 771.687 42.0732 771.516 38.2793H774.49C774.729 40.501 776.882 42.1416 779.548 42.1416C782.761 42.1416 785.085 39.7832 785.085 36.6729C785.085 33.46 782.659 31.1016 779.343 31.0674C777.258 31.0332 775.652 31.6826 774.729 33.2891H771.755L773.499 19.7539H786.897V22.4883H776.062L775.139 29.7344H775.378C776.472 28.8799 778.147 28.2988 779.89 28.2988C784.607 28.2988 788.093 31.7852 788.093 36.6045C788.093 41.3896 784.47 44.8418 779.548 44.8418ZM803.269 41.2188C802.073 41.2188 801.047 40.2275 801.082 38.9971C801.047 37.8008 802.073 36.8096 803.269 36.8096C804.465 36.8096 805.457 37.8008 805.457 38.9971C805.457 40.2275 804.465 41.2188 803.269 41.2188ZM803.269 27.4785C802.073 27.4785 801.047 26.4873 801.082 25.2568C801.047 24.0605 802.073 23.0693 803.269 23.0693C804.465 23.0693 805.457 24.0605 805.457 25.2568C805.457 26.4873 804.465 27.4785 803.269 27.4785ZM825.281 35.6133C823.367 35.6133 821.794 34.041 821.794 32.0928C821.794 30.1787 823.367 28.6064 825.281 28.6064C827.229 28.6064 828.801 30.1787 828.801 32.0928C828.801 34.041 827.229 35.6133 825.281 35.6133ZM851.907 35.6133C849.993 35.6133 848.42 34.041 848.42 32.0928C848.42 30.1787 849.993 28.6064 851.907 28.6064C853.855 28.6064 855.427 30.1787 855.427 32.0928C855.427 34.041 853.855 35.6133 851.907 35.6133ZM878.533 35.6133C876.619 35.6133 875.046 34.041 875.046 32.0928C875.046 30.1787 876.619 28.6064 878.533 28.6064C880.481 28.6064 882.053 30.1787 882.053 32.0928C882.053 34.041 880.481 35.6133 878.533 35.6133ZM905.159 35.6133C903.245 35.6133 901.672 34.041 901.672 32.0928C901.672 30.1787 903.245 28.6064 905.159 28.6064C907.107 28.6064 908.679 30.1787 908.679 32.0928C908.679 34.041 907.107 35.6133 905.159 35.6133ZM931.785 35.6133C929.871 35.6133 928.298 34.041 928.298 32.0928C928.298 30.1787 929.871 28.6064 931.785 28.6064C933.733 28.6064 935.305 30.1787 935.305 32.0928C935.305 34.041 933.733 35.6133 931.785 35.6133Z" fill="black"/>
<rect x="0.5" y="65.5" width="189" height="64" fill="white"/>
<rect x="0.5" y="65.5" width="189" height="64" stroke="black"/>
<path d="M20.4883 109.842C16.1816 109.773 11.4648 107.244 11.4648 98.084C11.4648 89.334 15.0537 84.4121 20.8643 84.4121C25.2051 84.4121 28.2471 87.0781 28.8965 90.9746H25.8545C25.2734 88.7871 23.6328 87.1465 20.8643 87.1465C16.7969 87.1465 14.3701 90.6328 14.3701 96.5801H14.6777C16.1133 94.5293 18.3691 93.2988 21.0352 93.2988C25.4443 93.2988 29.1016 96.7168 29.1016 101.502C29.1016 106.15 25.6836 109.876 20.4883 109.842ZM20.4883 107.142C23.7012 107.142 26.0938 104.612 26.1279 101.536C26.0938 98.4941 23.8037 95.999 20.5566 95.999C17.3096 95.999 14.8145 98.6309 14.7803 101.57C14.7803 104.476 17.1729 107.142 20.4883 107.142ZM44.2432 106.219C43.0469 106.219 42.0215 105.228 42.0557 103.997C42.0215 102.801 43.0469 101.81 44.2432 101.81C45.4395 101.81 46.4307 102.801 46.4307 103.997C46.4307 105.228 45.4395 106.219 44.2432 106.219ZM44.2432 92.4785C43.0469 92.4785 42.0215 91.4873 42.0557 90.2568C42.0215 89.0605 43.0469 88.0693 44.2432 88.0693C45.4395 88.0693 46.4307 89.0605 46.4307 90.2568C46.4307 91.4873 45.4395 92.4785 44.2432 92.4785ZM74.2188 95.7939V98.4941H57.1973V95.7939H74.2188ZM91.5137 100.613C89.5996 100.613 88.0273 99.041 88.0273 97.0928C88.0273 95.1787 89.5996 93.6064 91.5137 93.6064C93.4619 93.6064 95.0342 95.1787 95.0342 97.0928C95.0342 99.041 93.4619 100.613 91.5137 100.613ZM118.14 100.613C116.226 100.613 114.653 99.041 114.653 97.0928C114.653 95.1787 116.226 93.6064 118.14 93.6064C120.088 93.6064 121.66 95.1787 121.66 97.0928C121.66 99.041 120.088 100.613 118.14 100.613ZM144.766 100.613C142.852 100.613 141.279 99.041 141.279 97.0928C141.279 95.1787 142.852 93.6064 144.766 93.6064C146.714 93.6064 148.286 95.1787 148.286 97.0928C148.286 99.041 146.714 100.613 144.766 100.613ZM171.392 100.613C169.478 100.613 167.905 99.041 167.905 97.0928C167.905 95.1787 169.478 93.6064 171.392 93.6064C173.34 93.6064 174.912 95.1787 174.912 97.0928C174.912 99.041 173.34 100.613 171.392 100.613Z" fill="black"/>
<rect x="190.5" y="65.5" width="189" height="64" fill="white"/>
<rect x="190.5" y="65.5" width="189" height="64" stroke="black"/>
<path d="M204.421 109.5L215.769 87.6592V87.4883H202.678V84.7539H218.948V87.625L207.634 109.5H204.421ZM233.85 106.219C232.654 106.219 231.628 105.228 231.663 103.997C231.628 102.801 232.654 101.81 233.85 101.81C235.046 101.81 236.038 102.801 236.038 103.997C236.038 105.228 235.046 106.219 233.85 106.219ZM233.85 92.4785C232.654 92.4785 231.628 91.4873 231.663 90.2568C231.628 89.0605 232.654 88.0693 233.85 88.0693C235.046 88.0693 236.038 89.0605 236.038 90.2568C236.038 91.4873 235.046 92.4785 233.85 92.4785ZM263.826 95.7939V98.4941H246.804V95.7939H263.826ZM289.084 95.7939V98.4941H272.063V95.7939H289.084ZM306.379 100.613C304.465 100.613 302.893 99.041 302.893 97.0928C302.893 95.1787 304.465 93.6064 306.379 93.6064C308.328 93.6064 309.9 95.1787 309.9 97.0928C309.9 99.041 308.328 100.613 306.379 100.613ZM333.005 100.613C331.091 100.613 329.519 99.041 329.519 97.0928C329.519 95.1787 331.091 93.6064 333.005 93.6064C334.954 93.6064 336.526 95.1787 336.526 97.0928C336.526 99.041 334.954 100.613 333.005 100.613ZM359.631 100.613C357.717 100.613 356.145 99.041 356.145 97.0928C356.145 95.1787 357.717 93.6064 359.631 93.6064C361.58 93.6064 363.152 95.1787 363.152 97.0928C363.152 99.041 361.58 100.613 359.631 100.613Z" fill="black"/>
<rect x="380.5" y="65.5" width="189" height="64" fill="white"/>
<rect x="380.5" y="65.5" width="189" height="64" stroke="black"/>
<path d="M401.633 109.842C396.438 109.842 392.815 106.971 392.849 102.938C392.815 99.7246 395.037 97.0928 397.874 96.6484V96.5117C395.413 95.9307 393.806 93.6748 393.806 90.9746C393.806 87.1807 397.122 84.4121 401.633 84.4121C406.145 84.4121 409.46 87.1807 409.495 90.9746C409.46 93.6748 407.82 95.9307 405.393 96.5117V96.6484C408.196 97.0928 410.417 99.7246 410.452 102.938C410.417 106.971 406.794 109.842 401.633 109.842ZM401.633 107.142C405.188 107.142 407.375 105.364 407.375 102.767C407.375 100.032 404.949 98.0156 401.633 98.0156C398.318 98.0156 395.857 100.032 395.925 102.767C395.857 105.364 398.079 107.142 401.633 107.142ZM401.633 95.418C404.436 95.418 406.487 93.709 406.487 91.2139C406.487 88.7529 404.539 87.0781 401.633 87.0781C398.694 87.0781 396.78 88.7529 396.78 91.2139C396.78 93.709 398.796 95.418 401.633 95.418ZM425.491 106.219C424.294 106.219 423.269 105.228 423.303 103.997C423.269 102.801 424.294 101.81 425.491 101.81C426.687 101.81 427.678 102.801 427.678 103.997C427.678 105.228 426.687 106.219 425.491 106.219ZM425.491 92.4785C424.294 92.4785 423.269 91.4873 423.303 90.2568C423.269 89.0605 424.294 88.0693 425.491 88.0693C426.687 88.0693 427.678 89.0605 427.678 90.2568C427.678 91.4873 426.687 92.4785 425.491 92.4785ZM455.466 95.7939V98.4941H438.445V95.7939H455.466ZM480.725 95.7939V98.4941H463.704V95.7939H480.725ZM505.984 95.7939V98.4941H488.962V95.7939H505.984ZM523.279 100.613C521.365 100.613 519.792 99.041 519.792 97.0928C519.792 95.1787 521.365 93.6064 523.279 93.6064C525.227 93.6064 526.799 95.1787 526.799 97.0928C526.799 99.041 525.227 100.613 523.279 100.613ZM549.905 100.613C547.991 100.613 546.418 99.041 546.418 97.0928C546.418 95.1787 547.991 93.6064 549.905 93.6064C551.853 93.6064 553.425 95.1787 553.425 97.0928C553.425 99.041 551.853 100.613 549.905 100.613Z" fill="black"/>
<rect x="570.5" y="65.5" width="189" height="64" fill="white"/>
<rect x="570.5" y="65.5" width="189" height="64" stroke="black"/>
<path d="M592.163 84.4121C596.436 84.4463 601.152 87.0098 601.152 96.1357C601.152 104.92 597.563 109.842 591.753 109.842C587.412 109.842 584.336 107.176 583.721 103.245H586.763C587.31 105.467 588.984 107.107 591.753 107.107C595.786 107.107 598.247 103.621 598.281 97.6055H597.939C596.504 99.6562 594.248 100.887 591.616 100.887C587.173 100.887 583.516 97.5029 583.516 92.7178C583.516 88.1035 586.899 84.3779 592.163 84.4121ZM592.163 87.1123C588.916 87.1123 586.489 89.6416 586.523 92.6836C586.523 95.7598 588.813 98.1865 592.061 98.1865C595.273 98.1865 597.803 95.5205 597.803 92.6152C597.803 89.7783 595.444 87.1123 592.163 87.1123ZM616.294 106.219C615.098 106.219 614.072 105.228 614.106 103.997C614.072 102.801 615.098 101.81 616.294 101.81C617.49 101.81 618.481 102.801 618.481 103.997C618.481 105.228 617.49 106.219 616.294 106.219ZM616.294 92.4785C615.098 92.4785 614.072 91.4873 614.106 90.2568C614.072 89.0605 615.098 88.0693 616.294 88.0693C617.49 88.0693 618.481 89.0605 618.481 90.2568C618.481 91.4873 617.49 92.4785 616.294 92.4785ZM646.27 95.7939V98.4941H629.248V95.7939H646.27ZM671.528 95.7939V98.4941H654.507V95.7939H671.528ZM696.787 95.7939V98.4941H679.766V95.7939H696.787ZM722.046 95.7939V98.4941H705.024V95.7939H722.046ZM739.341 100.613C737.427 100.613 735.854 99.041 735.854 97.0928C735.854 95.1787 737.427 93.6064 739.341 93.6064C741.289 93.6064 742.861 95.1787 742.861 97.0928C742.861 99.041 741.289 100.613 739.341 100.613Z" fill="black"/>
<rect x="760.5" y="65.5" width="189" height="64" fill="white"/>
<rect x="760.5" y="65.5" width="189" height="64" stroke="black"/>
<path d="M783.018 109.842C777.515 109.842 774.37 105.228 774.37 97.127C774.37 89.0947 777.583 84.4121 783.018 84.4121C788.452 84.4121 791.665 89.0947 791.665 97.127C791.665 105.228 788.486 109.842 783.018 109.842ZM783.018 107.107C786.572 107.107 788.657 103.519 788.657 97.127C788.657 90.7354 786.572 87.0781 783.018 87.0781C779.463 87.0781 777.344 90.7354 777.344 97.127C777.344 103.519 779.429 107.107 783.018 107.107ZM806.67 106.219C805.474 106.219 804.448 105.228 804.482 103.997C804.448 102.801 805.474 101.81 806.67 101.81C807.866 101.81 808.857 102.801 808.857 103.997C808.857 105.228 807.866 106.219 806.67 106.219ZM806.67 92.4785C805.474 92.4785 804.448 91.4873 804.482 90.2568C804.448 89.0605 805.474 88.0693 806.67 88.0693C807.866 88.0693 808.857 89.0605 808.857 90.2568C808.857 91.4873 807.866 92.4785 806.67 92.4785ZM836.646 95.7939V98.4941H819.624V95.7939H836.646ZM861.904 95.7939V98.4941H844.883V95.7939H861.904ZM887.163 95.7939V98.4941H870.142V95.7939H887.163ZM912.422 95.7939V98.4941H895.4V95.7939H912.422ZM937.681 95.7939V98.4941H920.659V95.7939H937.681Z" fill="black"/>
</svg>
