<svg width="950" height="195" viewBox="0 0 950 195" fill="none" xmlns="http://www.w3.org/2000/svg">
<rect x="0.5" y="0.5" width="189" height="64" fill="white"/>
<rect x="0.5" y="0.5" width="189" height="64" stroke="black"/>
<path d="M43.1152 24.2656V40.0908H40.4492V26.4873H24.0771V24.2656H43.1152ZM61.9482 41.2188C60.752 41.2188 59.7266 40.2275 59.7607 38.9971C59.7266 37.8008 60.752 36.8096 61.9482 36.8096C63.1445 36.8096 64.1357 37.8008 64.1357 38.9971C64.1357 40.2275 63.1445 41.2188 61.9482 41.2188ZM61.9482 27.4785C60.752 27.4785 59.7266 26.4873 59.7607 25.2568C59.7266 24.0605 60.752 23.0693 61.9482 23.0693C63.1445 23.0693 64.1357 24.0605 64.1357 25.2568C64.1357 26.4873 63.1445 27.4785 61.9482 27.4785ZM83.96 35.6133C82.0459 35.6133 80.4736 34.041 80.4736 32.0928C80.4736 30.1787 82.0459 28.6064 83.96 28.6064C85.9082 28.6064 87.4805 30.1787 87.4805 32.0928C87.4805 34.041 85.9082 35.6133 83.96 35.6133ZM118.55 30.7939V33.4941H101.528V30.7939H118.55ZM135.845 35.6133C133.931 35.6133 132.358 34.041 132.358 32.0928C132.358 30.1787 133.931 28.6064 135.845 28.6064C137.793 28.6064 139.365 30.1787 139.365 32.0928C139.365 34.041 137.793 35.6133 135.845 35.6133ZM162.471 35.6133C160.557 35.6133 158.984 34.041 158.984 32.0928C158.984 30.1787 160.557 28.6064 162.471 28.6064C164.419 28.6064 165.991 30.1787 165.991 32.0928C165.991 34.041 164.419 35.6133 162.471 35.6133Z" fill="black"/>
<rect x="190.5" y="0.5" width="189" height="64" fill="white"/>
<rect x="190.5" y="0.5" width="189" height="64" stroke="black"/>
<path d="M233.696 37.6641V39.8516H214.282V24.2656H216.948V37.6641H233.696ZM251.948 41.2188C250.752 41.2188 249.727 40.2275 249.761 38.9971C249.727 37.8008 250.752 36.8096 251.948 36.8096C253.145 36.8096 254.136 37.8008 254.136 38.9971C254.136 40.2275 253.145 41.2188 251.948 41.2188ZM251.948 27.4785C250.752 27.4785 249.727 26.4873 249.761 25.2568C249.727 24.0605 250.752 23.0693 251.948 23.0693C253.145 23.0693 254.136 24.0605 254.136 25.2568C254.136 26.4873 253.145 27.4785 251.948 27.4785ZM273.96 35.6133C272.046 35.6133 270.474 34.041 270.474 32.0928C270.474 30.1787 272.046 28.6064 273.96 28.6064C275.908 28.6064 277.48 30.1787 277.48 32.0928C277.48 34.041 275.908 35.6133 273.96 35.6133ZM300.586 35.6133C298.672 35.6133 297.1 34.041 297.1 32.0928C297.1 30.1787 298.672 28.6064 300.586 28.6064C302.534 28.6064 304.106 30.1787 304.106 32.0928C304.106 34.041 302.534 35.6133 300.586 35.6133ZM335.176 30.7939V33.4941H318.154V30.7939H335.176ZM352.471 35.6133C350.557 35.6133 348.984 34.041 348.984 32.0928C348.984 30.1787 350.557 28.6064 352.471 28.6064C354.419 28.6064 355.991 30.1787 355.991 32.0928C355.991 34.041 354.419 35.6133 352.471 35.6133Z" fill="black"/>
<rect x="380.5" y="0.5" width="189" height="64" fill="white"/>
<rect x="380.5" y="0.5" width="189" height="64" stroke="black"/>
<path d="M423.013 24.0947V26.3164H407.017V37.8691H423.354V40.0225H404.351V24.0947H423.013ZM441.948 41.2188C440.752 41.2188 439.727 40.2275 439.761 38.9971C439.727 37.8008 440.752 36.8096 441.948 36.8096C443.145 36.8096 444.136 37.8008 444.136 38.9971C444.136 40.2275 443.145 41.2188 441.948 41.2188ZM441.948 27.4785C440.752 27.4785 439.727 26.4873 439.761 25.2568C439.727 24.0605 440.752 23.0693 441.948 23.0693C443.145 23.0693 444.136 24.0605 444.136 25.2568C444.136 26.4873 443.145 27.4785 441.948 27.4785ZM471.924 30.7939V33.4941H454.902V30.7939H471.924ZM489.219 35.6133C487.305 35.6133 485.732 34.041 485.732 32.0928C485.732 30.1787 487.305 28.6064 489.219 28.6064C491.167 28.6064 492.739 30.1787 492.739 32.0928C492.739 34.041 491.167 35.6133 489.219 35.6133ZM515.845 35.6133C513.931 35.6133 512.358 34.041 512.358 32.0928C512.358 30.1787 513.931 28.6064 515.845 28.6064C517.793 28.6064 519.365 30.1787 519.365 32.0928C519.365 34.041 517.793 35.6133 515.845 35.6133ZM542.471 35.6133C540.557 35.6133 538.984 34.041 538.984 32.0928C538.984 30.1787 540.557 28.6064 542.471 28.6064C544.419 28.6064 545.991 30.1787 545.991 32.0928C545.991 34.041 544.419 35.6133 542.471 35.6133Z" fill="black"/>
<rect x="570.5" y="0.5" width="189" height="64" fill="white"/>
<rect x="570.5" y="0.5" width="189" height="64" stroke="black"/>
<path d="M613.184 23.7529V33.0498H596.606V38.0742H613.696V40.2959H594.077V30.8965H610.586V25.9404H593.975V23.7529H613.184ZM631.948 41.2188C630.752 41.2188 629.727 40.2275 629.761 38.9971C629.727 37.8008 630.752 36.8096 631.948 36.8096C633.145 36.8096 634.136 37.8008 634.136 38.9971C634.136 40.2275 633.145 41.2188 631.948 41.2188ZM631.948 27.4785C630.752 27.4785 629.727 26.4873 629.761 25.2568C629.727 24.0605 630.752 23.0693 631.948 23.0693C633.145 23.0693 634.136 24.0605 634.136 25.2568C634.136 26.4873 633.145 27.4785 631.948 27.4785ZM653.96 35.6133C652.046 35.6133 650.474 34.041 650.474 32.0928C650.474 30.1787 652.046 28.6064 653.96 28.6064C655.908 28.6064 657.48 30.1787 657.48 32.0928C657.48 34.041 655.908 35.6133 653.96 35.6133ZM680.586 35.6133C678.672 35.6133 677.1 34.041 677.1 32.0928C677.1 30.1787 678.672 28.6064 680.586 28.6064C682.534 28.6064 684.106 30.1787 684.106 32.0928C684.106 34.041 682.534 35.6133 680.586 35.6133ZM707.212 35.6133C705.298 35.6133 703.726 34.041 703.726 32.0928C703.726 30.1787 705.298 28.6064 707.212 28.6064C709.16 28.6064 710.732 30.1787 710.732 32.0928C710.732 34.041 709.16 35.6133 707.212 35.6133ZM741.802 30.7939V33.4941H724.78V30.7939H741.802Z" fill="black"/>
<rect x="760.5" y="0.5" width="189" height="64" fill="white"/>
<rect x="760.5" y="0.5" width="189" height="64" stroke="black"/>
<path d="M830.664 24.1289V39.9883H811.523V24.1289H830.664ZM814.224 26.3506V37.8008H827.93V26.3506H814.224ZM849.258 41.2188C848.062 41.2188 847.036 40.2275 847.07 38.9971C847.036 37.8008 848.062 36.8096 849.258 36.8096C850.454 36.8096 851.445 37.8008 851.445 38.9971C851.445 40.2275 850.454 41.2188 849.258 41.2188ZM849.258 27.4785C848.062 27.4785 847.036 26.4873 847.07 25.2568C847.036 24.0605 848.062 23.0693 849.258 23.0693C850.454 23.0693 851.445 24.0605 851.445 25.2568C851.445 26.4873 850.454 27.4785 849.258 27.4785ZM879.233 30.7939V33.4941H862.212V30.7939H879.233ZM904.492 30.7939V33.4941H887.471V30.7939H904.492Z" fill="black"/>
<rect x="0.5" y="65.5" width="189" height="64" fill="white"/>
<rect x="0.5" y="65.5" width="189" height="64" stroke="black"/>
<path d="M40.9106 88.7529V94.4268H54.5142V88.7529H57.2144V105.125H38.2446V88.7529H40.9106ZM40.9106 102.767H54.5142V96.751H40.9106V102.767ZM75.9448 106.219C74.7485 106.219 73.7231 105.228 73.7573 103.997C73.7231 102.801 74.7485 101.81 75.9448 101.81C77.1411 101.81 78.1323 102.801 78.1323 103.997C78.1323 105.228 77.1411 106.219 75.9448 106.219ZM75.9448 92.4785C74.7485 92.4785 73.7231 91.4873 73.7573 90.2568C73.7231 89.0605 74.7485 88.0693 75.9448 88.0693C77.1411 88.0693 78.1323 89.0605 78.1323 90.2568C78.1323 91.4873 77.1411 92.4785 75.9448 92.4785ZM97.9565 100.613C96.0425 100.613 94.4702 99.041 94.4702 97.0928C94.4702 95.1787 96.0425 93.6064 97.9565 93.6064C99.9048 93.6064 101.477 95.1787 101.477 97.0928C101.477 99.041 99.9048 100.613 97.9565 100.613ZM132.546 95.7939V98.4941H115.525V95.7939H132.546ZM157.805 95.7939V98.4941H140.784V95.7939H157.805Z" fill="black"/>
<rect x="190.5" y="65.5" width="189" height="64" fill="white"/>
<rect x="190.5" y="65.5" width="189" height="64" stroke="black"/>
<path d="M239.114 93.4355C239.114 98.5625 243.215 102.049 248.582 103.279L247.283 105.433C243.027 104.339 239.438 101.929 237.781 98.2207C236.123 101.929 232.534 104.339 228.279 105.433L226.946 103.279C232.312 102.049 236.448 98.5625 236.448 93.4355V88.5479H239.114V93.4355ZM265.945 106.219C264.749 106.219 263.723 105.228 263.757 103.997C263.723 102.801 264.749 101.81 265.945 101.81C267.141 101.81 268.132 102.801 268.132 103.997C268.132 105.228 267.141 106.219 265.945 106.219ZM265.945 92.4785C264.749 92.4785 263.723 91.4873 263.757 90.2568C263.723 89.0605 264.749 88.0693 265.945 88.0693C267.141 88.0693 268.132 89.0605 268.132 90.2568C268.132 91.4873 267.141 92.4785 265.945 92.4785ZM295.92 95.7939V98.4941H278.899V95.7939H295.92ZM321.179 95.7939V98.4941H304.158V95.7939H321.179ZM338.474 100.613C336.56 100.613 334.988 99.041 334.988 97.0928C334.988 95.1787 336.56 93.6064 338.474 93.6064C340.422 93.6064 341.995 95.1787 341.995 97.0928C341.995 99.041 340.422 100.613 338.474 100.613Z" fill="black"/>
<rect x="380.5" y="65.5" width="189" height="64" fill="white"/>
<rect x="380.5" y="65.5" width="189" height="64" stroke="black"/>
<path d="M427.61 88.6162C432.976 88.6504 437.18 92.1025 437.18 96.9902C437.18 101.844 432.976 105.33 427.61 105.33C422.244 105.33 418.04 101.844 418.04 96.9902C418.04 92.1025 422.244 88.6504 427.61 88.6162ZM427.61 90.9746C423.713 90.9746 420.637 93.5039 420.671 96.9902C420.637 100.477 423.713 103.074 427.61 103.074C431.506 103.074 434.548 100.477 434.548 96.9902C434.548 93.5039 431.506 90.9746 427.61 90.9746ZM455.945 106.219C454.749 106.219 453.723 105.228 453.757 103.997C453.723 102.801 454.749 101.81 455.945 101.81C457.141 101.81 458.132 102.801 458.132 103.997C458.132 105.228 457.141 106.219 455.945 106.219ZM455.945 92.4785C454.749 92.4785 453.723 91.4873 453.757 90.2568C453.723 89.0605 454.749 88.0693 455.945 88.0693C457.141 88.0693 458.132 89.0605 458.132 90.2568C458.132 91.4873 457.141 92.4785 455.945 92.4785ZM485.92 95.7939V98.4941H468.899V95.7939H485.92ZM503.215 100.613C501.301 100.613 499.729 99.041 499.729 97.0928C499.729 95.1787 501.301 93.6064 503.215 93.6064C505.164 93.6064 506.736 95.1787 506.736 97.0928C506.736 99.041 505.164 100.613 503.215 100.613ZM537.805 95.7939V98.4941H520.784V95.7939H537.805Z" fill="black"/>
<rect x="570.5" y="65.5" width="189" height="64" fill="white"/>
<rect x="570.5" y="65.5" width="189" height="64" stroke="black"/>
<path d="M605.869 93.1279C605.869 98.1523 609.663 101.775 614.858 103.143L613.56 105.296C609.407 104.083 606.057 101.536 604.57 97.7764C603.032 101.536 599.683 104.083 595.581 105.296L594.248 103.143C599.409 101.775 603.203 98.1523 603.203 93.1279V91.0088H595.137V88.7871H614.038V91.0088H605.869V93.1279ZM632.632 106.219C631.436 106.219 630.41 105.228 630.444 103.997C630.41 102.801 631.436 101.81 632.632 101.81C633.828 101.81 634.819 102.801 634.819 103.997C634.819 105.228 633.828 106.219 632.632 106.219ZM632.632 92.4785C631.436 92.4785 630.41 91.4873 630.444 90.2568C630.41 89.0605 631.436 88.0693 632.632 88.0693C633.828 88.0693 634.819 89.0605 634.819 90.2568C634.819 91.4873 633.828 92.4785 632.632 92.4785ZM654.644 100.613C652.729 100.613 651.157 99.041 651.157 97.0928C651.157 95.1787 652.729 93.6064 654.644 93.6064C656.592 93.6064 658.164 95.1787 658.164 97.0928C658.164 99.041 656.592 100.613 654.644 100.613ZM689.233 95.7939V98.4941H672.212V95.7939H689.233ZM714.492 95.7939V98.4941H697.471V95.7939H714.492ZM731.787 100.613C729.873 100.613 728.301 99.041 728.301 97.0928C728.301 95.1787 729.873 93.6064 731.787 93.6064C733.735 93.6064 735.308 95.1787 735.308 97.0928C735.308 99.041 733.735 100.613 731.787 100.613Z" fill="black"/>
<rect x="760.5" y="65.5" width="189" height="64" fill="white"/>
<rect x="760.5" y="65.5" width="189" height="64" stroke="black"/>
<path d="M795.903 94.7686C795.903 99.3486 799.526 102.698 804.688 103.929L803.389 105.979C799.202 104.886 795.784 102.442 794.331 98.8018C792.896 102.442 789.529 104.886 785.342 105.979L784.043 103.929C789.17 102.698 792.759 99.3486 792.759 94.7686V93.8457H784.897V91.5898H793.032V87.2148H795.732V91.5898H803.867V93.8457H795.903V94.7686ZM822.632 106.219C821.436 106.219 820.41 105.228 820.444 103.997C820.41 102.801 821.436 101.81 822.632 101.81C823.828 101.81 824.819 102.801 824.819 103.997C824.819 105.228 823.828 106.219 822.632 106.219ZM822.632 92.4785C821.436 92.4785 820.41 91.4873 820.444 90.2568C820.41 89.0605 821.436 88.0693 822.632 88.0693C823.828 88.0693 824.819 89.0605 824.819 90.2568C824.819 91.4873 823.828 92.4785 822.632 92.4785ZM852.607 95.7939V98.4941H835.586V95.7939H852.607ZM869.902 100.613C867.988 100.613 866.416 99.041 866.416 97.0928C866.416 95.1787 867.988 93.6064 869.902 93.6064C871.851 93.6064 873.423 95.1787 873.423 97.0928C873.423 99.041 871.851 100.613 869.902 100.613ZM904.492 95.7939V98.4941H887.471V95.7939H904.492ZM921.787 100.613C919.873 100.613 918.301 99.041 918.301 97.0928C918.301 95.1787 919.873 93.6064 921.787 93.6064C923.735 93.6064 925.308 95.1787 925.308 97.0928C925.308 99.041 923.735 100.613 921.787 100.613Z" fill="black"/>
<rect x="0.5" y="130.5" width="189" height="64" fill="white"/>
<rect x="0.5" y="130.5" width="189" height="64" stroke="black"/>
<path d="M43.9697 153.719V170.33H41.2695V163.152L24.8291 164.246L24.4873 161.785L41.2695 160.999V155.94H25.1367V153.719H43.9697ZM62.6318 171.219C61.4355 171.219 60.4102 170.228 60.4443 168.997C60.4102 167.801 61.4355 166.81 62.6318 166.81C63.8281 166.81 64.8193 167.801 64.8193 168.997C64.8193 170.228 63.8281 171.219 62.6318 171.219ZM62.6318 157.479C61.4355 157.479 60.4102 156.487 60.4443 155.257C60.4102 154.061 61.4355 153.069 62.6318 153.069C63.8281 153.069 64.8193 154.061 64.8193 155.257C64.8193 156.487 63.8281 157.479 62.6318 157.479ZM92.6074 160.794V163.494H75.5859V160.794H92.6074ZM109.902 165.613C107.988 165.613 106.416 164.041 106.416 162.093C106.416 160.179 107.988 158.606 109.902 158.606C111.851 158.606 113.423 160.179 113.423 162.093C113.423 164.041 111.851 165.613 109.902 165.613ZM136.528 165.613C134.614 165.613 133.042 164.041 133.042 162.093C133.042 160.179 134.614 158.606 136.528 158.606C138.477 158.606 140.049 160.179 140.049 162.093C140.049 164.041 138.477 165.613 136.528 165.613ZM171.118 160.794V163.494H154.097V160.794H171.118Z" fill="black"/>
<rect x="190.5" y="130.5" width="189" height="64" fill="white"/>
<rect x="190.5" y="130.5" width="189" height="64" stroke="black"/>
<path d="M233.97 154.026V156.248H217.632V160.76H233.73V163.05H217.632V167.903H234.277V170.091H215V154.026H233.97ZM252.632 171.219C251.436 171.219 250.41 170.228 250.444 168.997C250.41 167.801 251.436 166.81 252.632 166.81C253.828 166.81 254.819 167.801 254.819 168.997C254.819 170.228 253.828 171.219 252.632 171.219ZM252.632 157.479C251.436 157.479 250.41 156.487 250.444 155.257C250.41 154.061 251.436 153.069 252.632 153.069C253.828 153.069 254.819 154.061 254.819 155.257C254.819 156.487 253.828 157.479 252.632 157.479ZM282.607 160.794V163.494H265.586V160.794H282.607ZM307.866 160.794V163.494H290.845V160.794H307.866ZM325.161 165.613C323.247 165.613 321.675 164.041 321.675 162.093C321.675 160.179 323.247 158.606 325.161 158.606C327.109 158.606 328.682 160.179 328.682 162.093C328.682 164.041 327.109 165.613 325.161 165.613ZM351.787 165.613C349.873 165.613 348.301 164.041 348.301 162.093C348.301 160.179 349.873 158.606 351.787 158.606C353.735 158.606 355.308 160.179 355.308 162.093C355.308 164.041 353.735 165.613 351.787 165.613Z" fill="black"/>
<rect x="380.5" y="130.5" width="189" height="64" fill="white"/>
<rect x="380.5" y="130.5" width="189" height="64" stroke="black"/>
<path d="M438.308 154.095V156.316H434.309V168.04H438.787V170.262H418.142V168.04H422.62V156.316H418.552V154.095H438.308ZM425.32 168.04H431.609V156.316H425.32V168.04ZM456.628 171.219C455.432 171.219 454.407 170.228 454.441 168.997C454.407 167.801 455.432 166.81 456.628 166.81C457.825 166.81 458.816 167.801 458.816 168.997C458.816 170.228 457.825 171.219 456.628 171.219ZM456.628 157.479C455.432 157.479 454.407 156.487 454.441 155.257C454.407 154.061 455.432 153.069 456.628 153.069C457.825 153.069 458.816 154.061 458.816 155.257C458.816 156.487 457.825 157.479 456.628 157.479ZM486.604 160.794V163.494H469.583V160.794H486.604ZM511.863 160.794V163.494H494.841V160.794H511.863ZM537.122 160.794V163.494H520.1V160.794H537.122Z" fill="black"/>
<rect x="570.5" y="130.5" width="189" height="64" fill="white"/>
<rect x="570.5" y="130.5" width="189" height="64" stroke="black"/>
<path d="M615.303 156.111V158.367H594.966V156.111H603.818V152.01H606.519V156.111H615.303ZM605.151 160.521C609.492 160.521 612.637 162.811 612.671 166.023C612.637 169.305 609.492 171.595 605.151 171.595C600.811 171.595 597.632 169.305 597.666 166.023C597.632 162.811 600.811 160.521 605.151 160.521ZM605.151 162.811C602.417 162.811 600.4 164.144 600.435 166.023C600.4 167.972 602.417 169.339 605.151 169.339C607.886 169.339 609.902 167.972 609.902 166.023C609.902 164.144 607.886 162.811 605.151 162.811ZM633.315 171.219C632.119 171.219 631.094 170.228 631.128 168.997C631.094 167.801 632.119 166.81 633.315 166.81C634.512 166.81 635.503 167.801 635.503 168.997C635.503 170.228 634.512 171.219 633.315 171.219ZM633.315 157.479C632.119 157.479 631.094 156.487 631.128 155.257C631.094 154.061 632.119 153.069 633.315 153.069C634.512 153.069 635.503 154.061 635.503 155.257C635.503 156.487 634.512 157.479 633.315 157.479ZM655.327 165.613C653.413 165.613 651.841 164.041 651.841 162.093C651.841 160.179 653.413 158.606 655.327 158.606C657.275 158.606 658.848 160.179 658.848 162.093C658.848 164.041 657.275 165.613 655.327 165.613ZM689.917 160.794V163.494H672.896V160.794H689.917ZM715.176 160.794V163.494H698.154V160.794H715.176ZM740.435 160.794V163.494H723.413V160.794H740.435Z" fill="black"/>
</svg>
